<svg xmlns="http://www.w3.org/2000/svg" width="216" height="57.535" viewBox="0 0 216 57.535">
    <path id="prefix__logo" d="M8879.29 19250.533a34.628 34.628 0 0 1-6.339-.586 33.112 33.112 0 0 1-5.885-1.686 32.017 32.017 0 0 1-5.318-2.662 31.127 31.127 0 0 1-4.624-3.518 29.8 29.8 0 0 1-3.807-4.266 27.874 27.874 0 0 1-2.87-4.885 26.773 26.773 0 0 1-1.812-16.963 27.405 27.405 0 0 1 1.821-5.4 28.551 28.551 0 0 1 2.884-4.885 29.368 29.368 0 0 1 3.817-4.256 30.694 30.694 0 0 1 4.628-3.512 31.738 31.738 0 0 1 5.31-2.652 33 33 0 0 1 5.865-1.678 34.272 34.272 0 0 1 12.6 0 32.981 32.981 0 0 1 5.865 1.678 31.925 31.925 0 0 1 5.31 2.652 30.752 30.752 0 0 1 4.629 3.512 29.708 29.708 0 0 1 3.816 4.256 28.461 28.461 0 0 1 2.879 4.885 27.029 27.029 0 0 1 1.821 5.4 26.657 26.657 0 0 1-1.11 15.3 28.165 28.165 0 0 1-4.841 8.16l3.435 5.793a3.44 3.44 0 0 1 .02 3.512 3.628 3.628 0 0 1-3.175 1.807zm-26.959-28.766a23.225 23.225 0 0 0 7.73 17.146 28.188 28.188 0 0 0 19.229 7.3h23.276l-2.41-4.064-1.729-2.918 2.193-2.594a22.791 22.791 0 0 0 5.57-14.875c0-13.484-12.078-24.451-26.93-24.451s-26.929 10.972-26.929 24.457zm190.689 22.934a4.23 4.23 0 0 1-2.3-2.285 4.254 4.254 0 0 1 0-3.373 4.239 4.239 0 0 1 .923-1.371 4.323 4.323 0 0 1 1.381-.918 4.314 4.314 0 0 1 5.644 5.662 4.417 4.417 0 0 1-.923 1.371 4.3 4.3 0 0 1-4.721.914zm.078-5.619a2.428 2.428 0 0 0 0 3.291 2.255 2.255 0 0 0 3.188 0 2.428 2.428 0 0 0 0-3.291 2.241 2.241 0 0 0-3.188 0zm-85.05 5.619a4.318 4.318 0 0 1-1.382-.914 4.254 4.254 0 0 1-.923-1.371 4.32 4.32 0 0 1 0-3.373 4.254 4.254 0 0 1 .923-1.371 4.393 4.393 0 0 1 1.382-.918 4.311 4.311 0 0 1 5.406 1.807 4.329 4.329 0 0 1 .236 3.855 4.318 4.318 0 0 1-.923 1.371 4.294 4.294 0 0 1-4.72.914zm.077-5.619a2.428 2.428 0 0 0 0 3.291 2.255 2.255 0 0 0 3.188 0 2.428 2.428 0 0 0 0-3.291 2.241 2.241 0 0 0-3.188 0zm-14.644 5.619a4.243 4.243 0 0 1-1.377-.914 4.362 4.362 0 0 1-.928-1.371 4.32 4.32 0 0 1 0-3.373 4.362 4.362 0 0 1 .928-1.371 4.326 4.326 0 0 1 3.049-1.252 4.308 4.308 0 0 1 4.319 4.314 4.207 4.207 0 0 1-.348 1.682 4.27 4.27 0 0 1-.923 1.371 4.3 4.3 0 0 1-4.721.914zm.082-5.619a2.428 2.428 0 0 0 0 3.291 2.25 2.25 0 0 0 3.185 0 2.428 2.428 0 0 0 0-3.291 2.236 2.236 0 0 0-3.185 0zm-13.382 5.387a4.238 4.238 0 0 1-1.585-1.564 4.187 4.187 0 0 1-.585-2.17 4.26 4.26 0 0 1 .344-1.7 4.3 4.3 0 0 1 .927-1.377 4.444 4.444 0 0 1 3.083-1.242 4.239 4.239 0 0 1 1.657.324 3.757 3.757 0 0 1 1.323.918.179.179 0 0 1 0 .25l-1.038 1.127a.145.145 0 0 1-.121.063.174.174 0 0 1-.131-.053 2.559 2.559 0 0 0-1.71-.633 2.136 2.136 0 0 0-1.59.662 2.3 2.3 0 0 0-.638 1.656 2.266 2.266 0 0 0 .643 1.639 2.131 2.131 0 0 0 1.585.66 2.481 2.481 0 0 0 1.71-.637.185.185 0 0 1 .131-.049.178.178 0 0 1 .121.072l1.038 1.127a.179.179 0 0 1 0 .25 3.821 3.821 0 0 1-1.328.918 4.167 4.167 0 0 1-1.652.33 4.311 4.311 0 0 1-2.182-.571zm129.245.416a.229.229 0 0 1-.213-.115l-1.671-2.635h-.329v2.566a.178.178 0 0 1-.048.135.183.183 0 0 1-.126.049h-1.686a.173.173 0 0 1-.131-.053.18.18 0 0 1-.053-.131v-8.006a.18.18 0 0 1 .053-.131.173.173 0 0 1 .131-.053h2.6a3.318 3.318 0 0 1 2.334.768 2.665 2.665 0 0 1 .836 2.045 2.873 2.873 0 0 1-.416 1.561 2.51 2.51 0 0 1-1.208.975l1.831 2.809a.18.18 0 0 1 .024.158c-.02.039-.067.059-.145.059zm-2.213-4.541h.711a2.133 2.133 0 0 0 .439-.049 1.463 1.463 0 0 0 .4-.16.8.8 0 0 0 .3-.318.976.976 0 0 0 .111-.492 1.071 1.071 0 0 0-.106-.5.788.788 0 0 0-.3-.314 1.415 1.415 0 0 0-.4-.154 2.133 2.133 0 0 0-.439-.049h-.711zm-25.784 4.541a.18.18 0 0 1-.184-.184v-6.393h-1.754a.159.159 0 0 1-.13-.053.171.171 0 0 1-.054-.125v-1.436a.181.181 0 0 1 .054-.131.179.179 0 0 1 .13-.053h5.557a.181.181 0 0 1 .13.053.177.177 0 0 1 .049.131v1.436a.167.167 0 0 1-.049.125.16.16 0 0 1-.13.053h-1.759v6.393a.175.175 0 0 1-.049.135.181.181 0 0 1-.125.049zm-8.334 0a.192.192 0 0 1-.2-.145l-.367-1.17h-2.787l-.372 1.17a.2.2 0 0 1-.208.145h-1.754a.153.153 0 0 1-.14-.059.164.164 0 0 1 0-.145l2.879-8.025a.209.209 0 0 1 .208-.145h1.527a.213.213 0 0 1 .227.145l2.9 8.025a.149.149 0 0 1 0 .145.164.164 0 0 1-.14.059zm-2.831-2.967h1.72l-.864-2.705zm-10.991 2.967a.229.229 0 0 1-.217-.115l-2.716-4.9v4.836a.178.178 0 0 1-.048.135.193.193 0 0 1-.126.049h-1.686a.185.185 0 0 1-.136-.053.2.2 0 0 1-.048-.131v-8.006a.2.2 0 0 1 .048-.131.185.185 0 0 1 .136-.053h1.879a.221.221 0 0 1 .208.121l2.715 4.918v-4.855a.181.181 0 0 1 .054-.131.164.164 0 0 1 .13-.053h1.687a.165.165 0 0 1 .125.049.175.175 0 0 1 .049.135v8.006a.175.175 0 0 1-.049.135.181.181 0 0 1-.125.049zm-13.232 0a.172.172 0 0 1-.179-.184v-8.006a.172.172 0 0 1 .179-.184h1.686a.16.16 0 0 1 .126.049.177.177 0 0 1 .053.135v8.006a.177.177 0 0 1-.053.135.174.174 0 0 1-.126.049zm-13.311 0a.174.174 0 0 1-.179-.184v-8.006a.174.174 0 0 1 .179-.184h2.634a5.271 5.271 0 0 1 1.884.324 3.81 3.81 0 0 1 1.382.9 3.953 3.953 0 0 1 .831 1.33 4.714 4.714 0 0 1 0 3.256 3.983 3.983 0 0 1-.831 1.328 3.789 3.789 0 0 1-1.382.9 5.186 5.186 0 0 1-1.884.328zm1.865-1.793h.769a2.292 2.292 0 0 0 1.734-.617 2.994 2.994 0 0 0 0-3.553 2.276 2.276 0 0 0-1.734-.613h-.769zm-10.136 1.793a.232.232 0 0 1-.218-.115l-1.672-2.635h-.323v2.566a.178.178 0 0 1-.054.135.181.181 0 0 1-.125.049h-1.687a.174.174 0 0 1-.179-.184v-8.006a.174.174 0 0 1 .179-.184h2.6a3.337 3.337 0 0 1 2.338.768 2.662 2.662 0 0 1 .831 2.045 2.873 2.873 0 0 1-.415 1.561 2.51 2.51 0 0 1-1.208.975l1.831 2.809c.038.066.048.119.024.158s-.068.059-.146.059zm-2.213-4.541h.705a2.125 2.125 0 0 0 .439-.049 1.469 1.469 0 0 0 .4-.16.8.8 0 0 0 .3-.318.976.976 0 0 0 .115-.492 1.071 1.071 0 0 0-.11-.5.788.788 0 0 0-.3-.314 1.421 1.421 0 0 0-.4-.154 2.125 2.125 0 0 0-.439-.049h-.705zm-86.291-4.865a6.155 6.155 0 0 1-1.86-5.4 1.777 1.777 0 0 1 .483-.941 1.73 1.73 0 0 1 2.426 0 1.549 1.549 0 0 1 .5 1.338 3.022 3.022 0 0 0 .894 2.518 2.981 2.981 0 0 0 4.368-.082 2.917 2.917 0 0 0 .105-4.344 3.209 3.209 0 0 0-2.551-.879 1.606 1.606 0 0 1-1.348-.5 1.69 1.69 0 0 1 0-2.4 1.654 1.654 0 0 1 .9-.459 6.052 6.052 0 0 1 5.527 1.8 6.621 6.621 0 0 1-4.57 11.4 6.948 6.948 0 0 1-4.872-2.051zm-22.876.105a6.545 6.545 0 0 1 .126-9.436 6.307 6.307 0 0 1 5.459-1.84 1.819 1.819 0 0 1 .956.479 1.69 1.69 0 0 1 0 2.4 1.59 1.59 0 0 1-1.357.5 3.1 3.1 0 0 0-2.546.879 2.909 2.909 0 0 0 .092 4.324 2.992 2.992 0 0 0 4.387.1 3.132 3.132 0 0 0 .889-2.518 1.563 1.563 0 0 1 .508-1.338 1.728 1.728 0 0 1 2.425 0 1.622 1.622 0 0 1 .464.895 5.908 5.908 0 0 1-1.826 5.469 6.909 6.909 0 0 1-4.865 2.029 6.679 6.679 0 0 1-4.71-1.943zm171.954-23.049a14.8 14.8 0 0 1 15.136-15.137c8.016 0 13.832 5.7 13.832 13.547v.174c0 2.391-1.677 3.938-4.266 3.938h-16.919l.038.164c.972 3.73 4.024 5.869 8.383 5.869a11.723 11.723 0 0 0 6.184-1.729 3.146 3.146 0 0 1 1.657-.512 3.029 3.029 0 0 1 3.141 3.053c0 1.266-.57 2.154-1.962 3.078a16.714 16.714 0 0 1-9.257 2.689c-9.1.001-15.965-6.505-15.965-15.134zm7.821-2.977l-.038.16h13.662v-.137c-.125-3.594-2.734-6.014-6.488-6.014-3.481.001-6.216 2.296-7.134 5.992zm-117.685 2.918c0-8.455 6.855-15.078 15.61-15.078 4.86 0 9.479 2.246 11.773 5.721a3.656 3.656 0 0 1 .691 2.053 3.427 3.427 0 0 1-3.436 3.406 3.129 3.129 0 0 1-2.633-1.193 8 8 0 0 0-6.276-2.99c-4.623 0-7.851 3.322-7.851 8.082 0 4.793 3.228 8.141 7.851 8.141a8.3 8.3 0 0 0 6.276-2.99 3.188 3.188 0 0 1 2.633-1.193 3.428 3.428 0 0 1 3.436 3.41 3.262 3.262 0 0 1-.629 1.934c-2.459 3.744-6.773 5.893-11.836 5.893a15.243 15.243 0 0 1-15.606-15.195zm63.777 0c0-8.455 6.86-15.078 15.615-15.078 8.788 0 15.672 6.623 15.672 15.078 0 8.488-6.908 15.137-15.73 15.137a15.187 15.187 0 0 1-15.554-15.136zm7.88.059c0 4.646 3.252 8.023 7.735 8.023a7.708 7.708 0 0 0 7.729-8.023c0-4.643-3.323-8.141-7.729-8.141-4.48.001-7.732 3.42-7.732 8.141zm-41.5-.059c0-8.455 6.855-15.078 15.614-15.078 8.788 0 15.673 6.623 15.673 15.078 0 8.488-6.914 15.137-15.735 15.137a15.185 15.185 0 0 1-15.549-15.136zm7.88.059c0 4.646 3.251 8.023 7.734 8.023a7.708 7.708 0 0 0 7.73-8.023c0-4.643-3.324-8.141-7.73-8.141-4.48.001-7.731 3.42-7.731 8.141zm-89.809 9.115a5.875 5.875 0 0 1 11.721 0 5.665 5.665 0 0 1-5.894 5.484 5.608 5.608 0 0 1-5.824-5.484zm-10.213-4.459a6.583 6.583 0 0 1-.087-9.469 6.715 6.715 0 0 1 9.537.121 6.13 6.13 0 0 1 1.859 5.4 1.807 1.807 0 0 1-.479.943 1.734 1.734 0 0 1-2.43 0 1.55 1.55 0 0 1-.5-1.34 3.026 3.026 0 0 0-.889-2.516 2.986 2.986 0 0 0-4.372.086 2.919 2.919 0 0 0-.106 4.34 3.224 3.224 0 0 0 2.551.879 1.606 1.606 0 0 1 1.353.5 1.68 1.68 0 0 1-.9 2.855 5.409 5.409 0 0 1-1.14.121 6.27 6.27 0 0 1-4.393-1.92zm26.741 1.822a1.817 1.817 0 0 1-.952-.479 1.692 1.692 0 0 1 0-2.4 1.587 1.587 0 0 1 1.353-.5 3.107 3.107 0 0 0 2.546-.879 2.912 2.912 0 0 0-.087-4.324 3 3 0 0 0-4.387-.107 3.154 3.154 0 0 0-.894 2.527 1.572 1.572 0 0 1-.5 1.334 1.73 1.73 0 0 1-2.426 0 1.641 1.641 0 0 1-.464-.895 5.905 5.905 0 0 1 1.821-5.469 6.763 6.763 0 0 1 9.576-.088 6.723 6.723 0 0 1-4.614 11.373 5 5 0 0 1-.968-.092zm133.6-5.73a4.271 4.271 0 1 1 4.271 4.271 4.276 4.276 0 0 1-4.265-4.271z" transform="translate(-8848.003 -19193.002)" style="fill:#fff"/>
</svg>
